<svg xmlns="http://www.w3.org/2000/svg" width="24" height="24" viewBox="0 0 24 24">
  <rect fill="currentColor" x="4.01" y="5.14" width="15.87" height="1" rx=".5"/>
  <rect fill="currentColor" x="4.01" y="8.15" width="15.87" height="1" rx=".5"/>
  <path fill="currentColor" d="M20 22.09H3.87a1.93 1.93 0 0 1-1.93-1.92V4a1.93 1.93 0 0 1 1.93-1.91H20A1.92 1.92 0 0 1 21.94 4v16.17A1.92 1.92 0 0 1 20 22.09M3.87 2.89A1.13 1.13 0 0 0 2.74 4v16.17a1.13 1.13 0 0 0 1.13 1.12H20a1.12 1.12 0 0 0 1.12-1.12V4A1.12 1.12 0 0 0 20 2.89Z"/>
  <path fill="currentColor" d="m19.13 17.64-.52-1.58a1.67 1.67 0 0 0-1.9-1.15 6.8 6.8 0 0 1-1.49.11 1.68 1.68 0 0 0-1.56.91l-.25.51a8.5 8.5 0 0 1-3.23-1.63l.25-.51a1.67 1.67 0 0 0-.19-1.79 7 7 0 0 1-.8-1.27 1.68 1.68 0 0 0-2-.85l-1.59.52-.17.09a1.67 1.67 0 0 0-.87 2.2 11.6 11.6 0 0 0 3.3 4.26 11.45 11.45 0 0 0 4.44 2.24 11.6 11.6 0 0 0 5.37.12h.14a1.65 1.65 0 0 0 1-.84 1.68 1.68 0 0 0 .07-1.34m-1.13.78a.5.5 0 0 1-.36.29 10.62 10.62 0 0 1-8.87-2.13 10.5 10.5 0 0 1-3-3.85.5.5 0 0 1 0-.42.58.58 0 0 1 .4-.31l1.59-.52a.57.57 0 0 1 .67.28 8 8 0 0 0 .93 1.48.55.55 0 0 1 .07.59L9 14.7a.54.54 0 0 0 .12.66 9.5 9.5 0 0 0 4.49 2.26.56.56 0 0 0 .61-.29l.45-.9a.56.56 0 0 1 .52-.3 7.7 7.7 0 0 0 1.72-.13.56.56 0 0 1 .63.39l.53 1.61a.53.53 0 0 1-.07.42"/>
  <path fill="currentColor" d="M12.13 12.92H13v.84a.33.33 0 0 0 .33.33h.08a.33.33 0 0 0 .33-.33v-.84h.84a.33.33 0 0 0 .33-.33v-.08a.33.33 0 0 0-.33-.33h-.84v-.84a.33.33 0 0 0-.33-.33h-.11a.33.33 0 0 0-.33.33v.84h-.84a.33.33 0 0 0-.33.33v.08a.33.33 0 0 0 .33.33"/>
</svg>
