<svg xmlns="http://www.w3.org/2000/svg" width="24" height="24" viewBox="0 0 24 24">
  <path fill="currentColor" d="M19.4.7H6.6C5.1.7 3.9 1.9 3.9 3.4v1.2H2.6c-.3 0-.5.2-.5.5s.2.5.5.5h1.3v3.5H2.6c-.3 0-.5.2-.5.5s.2.5.5.5h1.3v3.5H2.6c-.3 0-.5.2-.5.5s.2.5.5.5h1.3v3.5H2.6c-.3 0-.5.2-.5.5s.2.5.5.5h1.3v1.2c0 1.5 1.2 2.7 2.7 2.7h12.8c1.5 0 2.7-1.2 2.7-2.7V3.4c0-1.5-1.2-2.7-2.7-2.7m1.6 20c0 .9-.7 1.6-1.6 1.6H6.6c-.9 0-1.6-.7-1.6-1.6v-1.2h1.3c.3 0 .5-.2.5-.5s-.2-.5-.5-.5H5V15h1.3c.3 0 .5-.2.5-.5s-.2-.5-.5-.5H5v-3.5h1.3c.3 0 .5-.2.5-.5s-.2-.5-.5-.5H5V5.6h1.3c.3 0 .5-.2.5-.5s-.2-.5-.5-.5H5V3.4c0-.9.7-1.6 1.6-1.6h12.8c.9 0 1.6.7 1.6 1.6z"/>
  <path fill="currentColor" d="M13 11.9c1.4 0 2.6-1.2 2.6-2.6S14.4 6.6 13 6.6s-2.6 1.2-2.6 2.6c0 1.5 1.1 2.7 2.6 2.7m0-4.2c.9 0 1.5.7 1.5 1.5 0 .9-.7 1.5-1.5 1.5-.9 0-1.5-.7-1.5-1.5-.1-.8.6-1.5 1.5-1.5m0 5c-2.3 0-4 1.8-4 4.2 0 .3.2.5.5.5h6.9c.3 0 .5-.2.5-.5.1-2.4-1.7-4.2-3.9-4.2m-2.9 3.6c.2-1.5 1.4-2.5 2.9-2.5s2.7 1.1 2.9 2.5z"/>
</svg>
