<svg xmlns="http://www.w3.org/2000/svg" width="24" height="24" viewBox="0 0 24 24">
  <path fill="currentColor" d="M17 7.6a.6.6 0 0 1-.42-1l6-6a.58.58 0 0 1 .84 0 .58.58 0 0 1 0 .84l-6 6a.58.58 0 0 1-.42.16"/>
  <path fill="currentColor" d="M23 7.6a.58.58 0 0 1-.42-.18l-6-6a.58.58 0 0 1 0-.84.58.58 0 0 1 .84 0l6 6a.6.6 0 0 1-.42 1Zm-3 14.93h-.22a20.6 20.6 0 0 1-8.9-3.17 20.2 20.2 0 0 1-6.18-6.18 20.5 20.5 0 0 1-3.18-8.94 2.6 2.6 0 0 1 .6-1.91 2.57 2.57 0 0 1 1.76-.92h3.23A2.62 2.62 0 0 1 9.7 3.64a13 13 0 0 0 .67 2.68 2.59 2.59 0 0 1-.58 2.74l-.95.94A15.46 15.46 0 0 0 14 15.16l.95-.94a2.58 2.58 0 0 1 2.74-.59 12.5 12.5 0 0 0 2.68.66 2.61 2.61 0 0 1 2.24 2.64v3a2.59 2.59 0 0 1-2.61 2.6M7.13 2.6H4a1.39 1.39 0 0 0-1.28 1.53 19.15 19.15 0 0 0 3 8.39 19 19 0 0 0 5.82 5.82 19.26 19.26 0 0 0 8.37 3H20a1.42 1.42 0 0 0 1.4-1.41v-3a1.4 1.4 0 0 0-1.2-1.43 13 13 0 0 1-2.94-.73 1.4 1.4 0 0 0-1.48.32l-1.27 1.26a.59.59 0 0 1-.72.1 16.65 16.65 0 0 1-6.22-6.22.58.58 0 0 1 .1-.72l1.27-1.29a1.42 1.42 0 0 0 .31-1.48 13 13 0 0 1-.73-2.94 1.42 1.42 0 0 0-1.39-1.2"/>
</svg>
