<svg xmlns="http://www.w3.org/2000/svg" width="24" height="24" viewBox="0 0 24 24">
  <path fill="currentColor" d="M11.6 8a3.6 3.6 0 1 0 3.6 3.6A3.61 3.61 0 0 0 11.6 8m0 6a2.4 2.4 0 1 1 2.4-2.4 2.41 2.41 0 0 1-2.4 2.4"/>
  <path fill="currentColor" d="M20.6 9h-.17a1 1 0 0 1-.91-.54.8.8 0 0 0-.05-.18 1.09 1.09 0 0 1 .27-1.22 2.59 2.59 0 0 0 0-3.67 2.56 2.56 0 0 0-1.85-.79 2.63 2.63 0 0 0-1.89.82 1 1 0 0 1-1.16.21 1.08 1.08 0 0 1-.64-1A2.6 2.6 0 0 0 9 2.6v.17a1 1 0 0 1-.54.91h-.18a1.07 1.07 0 0 1-1.22-.27A2.62 2.62 0 1 0 3.44 7.2a1.06 1.06 0 0 1 .16 1.19 1.07 1.07 0 0 1-1 .69 2.6 2.6 0 0 0 0 5.2h.17a1 1 0 0 1 1 .64 1.07 1.07 0 0 1-.27 1.22 2.6 2.6 0 0 0 0 3.66 2.62 2.62 0 0 0 3.73-.06 1.06 1.06 0 0 1 1.16-.14 1.07 1.07 0 0 1 .69 1 2.6 2.6 0 1 0 5.2 0v-.17a1 1 0 0 1 .64-1 1.07 1.07 0 0 1 1.22.27 2.58 2.58 0 0 0 1.84.76 2.61 2.61 0 0 0 2.62-2.57 2.63 2.63 0 0 0-.82-1.89 1.06 1.06 0 0 1-.18-1.16 1.08 1.08 0 0 1 1-.64 2.6 2.6 0 1 0 0-5.2m-.09 4a2.24 2.24 0 0 0-2.06 1.36 2.27 2.27 0 0 0 .52 2.54 1.41 1.41 0 0 1-1 2.4 1.46 1.46 0 0 1-1.06-.48 2.26 2.26 0 0 0-3.84 1.61v.17a1.4 1.4 0 1 1-2.8 0v-.1a2.23 2.23 0 0 0-1.44-2 2.2 2.2 0 0 0-.89-.19 2.33 2.33 0 0 0-1.65.71 1.41 1.41 0 0 1-2 0 1.43 1.43 0 0 1-.41-1 1.46 1.46 0 0 1 .48-1.06 2.26 2.26 0 0 0-1.61-3.84H2.6a1.4 1.4 0 0 1 0-2.8h.1a2.23 2.23 0 0 0 2.05-1.48 2.26 2.26 0 0 0-.52-2.54 1.41 1.41 0 1 1 2.05-1.92 2.24 2.24 0 0 0 2.32.5.7.7 0 0 0 .2 0 2.24 2.24 0 0 0 1.4-2.11V2.6a1.4 1.4 0 0 1 1.4-1.4A1.43 1.43 0 0 1 13 2.69a2.26 2.26 0 0 0 3.9 1.54 1.43 1.43 0 0 1 1-.41 1.4 1.4 0 0 1 1 .41 1.42 1.42 0 0 1-.08 2 2.26 2.26 0 0 0-.5 2.37.7.7 0 0 0 .05.2 2.24 2.24 0 0 0 2.06 1.36h.17A1.4 1.4 0 0 1 22 11.6a1.43 1.43 0 0 1-1.49 1.4"/>
</svg>
