<svg xmlns="http://www.w3.org/2000/svg" width="506.27" height="518.38" viewBox="0 0 506.27 518.38">
  <path d="M81.5 365.31S9.91 327.19 77.78 249.1c30.68-37.18 37.18-72.51 41.83-94.82s16.73-66 114.35-27.89c29.74 3.72 174.77-53.92 192.43 13s55.78 133.86 70.65 159 23.24 79-68.79 76.23C340.94 372 81.5 365.31 81.5 365.31" fill="#0667bd" opacity=".22"/>
  <path d="M59.66 372.5c8.28-16.41 29.52-34.42 6.73-50.43s-84-62.35-61.48-117.51 100-49.67 128.74-57 71.81-30.33 83.41-39.88 19.62-31.42 91-26.64 137.62 49.88 145.08 59.57c22.6 29.36 82.49 182.73 9.14 223.16s-402.19 9-402.19 9" fill="#0667bd" opacity=".29"/>
  <path d="M38.86 381.37h442s-40-10-67-9.39c-86.94 2-303 .56-303 .56s-51-5.89-72 8.83" fill="#095289"/>
  <path d="M296 105h149c8.49 0 15.37 9.36 15.37 20.91v114.3l21.76 58.35-56.78-22.77H296c-8.49 0-15.36-9.37-15.36-20.92v-129C280.59 114.38 287.46 105 296 105" fill="#02509b"/>
  <path d="M71.93 506.67s-3-15.2 16.72-19 28.89 3.8 38-1.52 24.32.76 37.24-.76 31.17.76 25.85 10.64-.76 20.52-19 19.76-31.16 3.8-41.8 2.28-31.94 1.52-37.25-2.28-20.52-5.32-19.76-9.12" fill="#0667bd" opacity=".13"/>
  <path d="M337.53 490.7s-2.65-19.71 14.55-24.64 25.13 4.93 33.06-2 21.17 1 32.41-1 27.11 1 22.48 13.79-.66 26.61-16.53 25.62-27.11 4.93-36.37 3-27.78 2-32.41-3-17.85-6.84-17.19-11.77" fill="#0667bd" opacity=".11"/>
  <path d="M285.56 0H85.89C74.52 0 65.31 12.29 65.31 27.45v150L36.16 254l76.05-29.88h173.35c11.36 0 20.57-12.29 20.57-27.45V27.45c0-15.16-9.21-27.45-20.57-27.45" fill="#0667bd"/>
  <g opacity=".23" fill="#fff">
    <circle cx="122.86" cy="98.37" r="11"/>
    <circle cx="190.36" cy="98.37" r="7.5"/>
    <circle cx="257.86" cy="98.37" r="5"/>
  </g>
  <g opacity=".11" fill="#fff">
    <circle cx="320.09" cy="175.37" r="8.23"/>
    <circle cx="370.6" cy="175.37" r="5.61"/>
    <circle cx="421.11" cy="175.37" r="3.74"/>
  </g>
  <path d="M112.68 373.52c1-.79 1-.79 1-6.1v-18.97c0-2.09.06-4.29.08-6.43s0-4.17 0-6.4a11 11 0 0 1 1.18.31c4.15 1.57 8.28 3.19 12.44 4.73a1.59 1.59 0 0 1 1.26 1.8c-.08 2.19 0 4.38 0 6.94l4.08-2.87v26.54h.5v-26.66c1.92.79 3.49 1.42 5 2.08 1.78.77 4.19 1.12 5.11 2.48s.33 3.71.34 5.63v16.67H148v3H67.65v-2.82l3.4-.16v-46.6a2.61 2.61 0 0 1 1.21-2.44c3.39-2.36 6.7-4.81 10.05-7.23.33-.23.68-.42 1.26-.78v55.65a5 5 0 0 0 .5 1.43 4.8 4.8 0 0 0 .48-1.44V316.1c1.79.74 3.41 1.39 5 2.07 5 2.12 10 4.28 15 6.35a1.89 1.89 0 0 1 1.45 2.08c-.06 3.7 0 7.4 0 11.46l6.72-2.69Zm-9-13.49-16.09-2a21 21 0 0 1 0 2.14c-.14 1.26.32 1.73 1.64 1.76 2.07.06 4.14.37 6.21.57l8.13.74c0-.43.1-.73.11-1 .06-.69.05-1.36.05-2.24Zm-.18-27.4c.42-3.1.42-3.09-2.18-4.07L89 323.86c-.37-.13-.76-.2-1.23-.33a13 13 0 0 1-.08 1.38c-.31 1.63.37 2.46 2 2.85s2.85 1 4.27 1.49Zm-15.79 18.5v3.69l15.87 2.36a9 9 0 0 0 .1-1c-.09-2.81.49-2.13-2.39-2.75-2.69-.58-5.43-.91-8.15-1.37-1.72-.27-3.5-.6-5.38-.93Zm15.79-.09c.64-2.89.49-3.15-2-3.73s-4.87-1.12-7.32-1.66l-6.57-1.44v2.53c0 .77.34 1.18 1.12 1.34 4.93.92 9.82 1.92 14.82 2.92Zm0 18.34c.55-3.24.55-3.22-2.45-3.42-3.44-.22-6.88-.45-10.32-.75s-3.33-.33-3.08 3c0 .1.1.18.24.43Zm0-30.6c.43-3.12.43-3.12-2.18-4l-12.17-4c-.46-.15-.94-.22-1.56-.37a22 22 0 0 0 0 2.72 1.38 1.38 0 0 0 .71 1c5.1 1.58 10.13 3.09 15.26 4.65Zm-15.84-1.5v3.64l16 4a10 10 0 0 1 .07-1.2c.3-1.61-.38-2.26-2-2.6-2.74-.6-5.43-1.47-8.14-2.22-1.86-.54-3.76-1.05-5.87-1.62Zm-15 32.07c2-.14 4-.35 6-.4 3.53-.08 3.59-.09 3.1-3.61 0-.08-.11-.15-.24-.32-2.21.28-4.48.54-6.74.85-2.76.37-2.76.39-2.39 3.17 0 .04.06.07.27.31m8.91-45.76c-.47.26-.91.49-1.33.76-2.06 1.32-4.12 2.64-6.17 4s-2.12 1.47-1.53 4.25l7.22-4.35c2.34-1.44 2.46-1.73 1.81-4.66m-9.09 21.28c3-1.29 6-2.54 8.88-3.83a1 1 0 0 0 .42-.74c.06-.92 0-1.84 0-3.05-2.61 1.22-5 2.3-7.3 3.4s-2.48 1.18-2 4.22m0-6.12L79.8 335c2.26-1.15 2.52-1.8 1.71-4.54l-7.1 3.94c-2.3 1.26-2.31 1.25-1.97 4.35Zm9.37 5.42c-2.71 1-5.09 2-7.47 2.86s-2.48 1.25-1.75 3.93c2.86-1 5.72-1.92 8.56-2.94a1.25 1.25 0 0 0 .63-.91c.05-.87-.01-1.75-.01-2.94Zm-9.34 19.09c2.9-.48 5.72-.93 8.53-1.44a1.19 1.19 0 0 0 .76-.77c.09-.95 0-1.91 0-3-2.6.56-4.89 1-7.18 1.53s-2.44.53-2.3 3a7 7 0 0 0 .15.68Zm-.08-6.11c3.09-.78 6-1.49 8.8-2.26a1 1 0 0 0 .58-.77c.07-.92 0-1.85 0-3-2.82.83-5.39 1.64-8 2.32-1.14.3-1.74.78-1.52 2 .07.48.06.94.1 1.71Zm69.93 6.16.47-.39c-.31-.45-.54-1.19-.94-1.3-2.25-.62-4.55-1.08-6.92-1.62-.13.88-.57 1.71.65 2 2.2.42 4.45.86 6.7 1.31Zm.08-3c.27-1.53.27-1.54-.92-1.88-1.9-.54-3.79-1.07-5.69-1.58a3.6 3.6 0 0 0-.92 0c-.31 1.13 0 1.65 1.08 1.88 2.08.49 4.18 1.06 6.41 1.62Zm-.08-6 .44-.27c-.24-.49-.35-1.26-.72-1.42-2.32-1-4.69-1.83-7-2.72l-.44.41c.34.54.57 1.37 1.06 1.58 2.1.96 4.37 1.69 6.62 2.48ZM135 370.07c-.42 1.34-.17 1.94 1.19 1.94 1.72 0 3.44.1 5.15.24 1.35.11 1.51-.48 1.1-1.63Zm0-6.68-.41.43c.32.49.58 1.33 1 1.41 2.28.46 4.59.74 6.88 1.08l.33-.37c-.25-.44-.43-1.21-.76-1.28-2.36-.51-4.72-.87-7.04-1.27m.07 3.35-.44.4c.27.48.49 1.33.82 1.38 2.34.35 4.69.53 7 .76l.33-.46c-.33-.42-.6-1.14-1-1.2-2.21-.38-4.47-.62-6.73-.88Zm7.3-9.39.39-.32c-.2-.45-.29-1.2-.61-1.32-2.35-.87-4.75-1.62-7.14-2.4l-.43.45c.32.52.53 1.34 1 1.5 2.19.79 4.49 1.41 6.77 2.09Zm-24.06-12.61c.33-3.43 0-3.87-2.53-3.9-.53 3.16-.31 3.51 2.51 3.9Zm-2.46 6.68c-.55 3.4-.27 3.8 2.5 3.72V352Zm0 16.22c-.71 3.12-.23 3.76 2.38 3.18.53-3.2.31-3.5-2.37-3.18Zm2.4-17.64c.45-3.27.1-3.78-2.46-3.67-.49 3.17-.39 3.32 2.46 3.67m0 15.62c.58-3.14.23-3.62-2.39-3.26-.63 3.17-.32 3.64 2.36 3.25Zm0-5.2c.52-3.21.27-3.56-2.41-3.47-.63 3.19-.43 3.49 2.39 3.46Zm2.15-18c-.39 3.2-.23 3.45 2.22 3.61.55-2.92.38-3.24-2.24-3.63Zm2.26 13.79c.39-3.27.17-3.58-2.29-3.51v3.09Zm-2.19 1.49c-.67 3.05-.2 3.73 2.25 3.24.28-3.08.28-3.08-2.27-3.26Zm2.16-6.64c.51-3 .29-3.32-2.27-3.51v3.09c.53.15 1 .3 1.53.41a3.7 3.7 0 0 0 .72-.05Zm-2.28 15h2.31c.4-3.16.3-3.29-2.31-3.14Zm0 1.91v3.17h2.24c.53-3.23.41-3.37-2.22-3.22Zm-11.16-7.63c2.09-.06 2.3-.51 1.72-3.47-2.1-.02-2.24.26-1.7 3.42Zm1.81-19.71c-2.12.47-2.39 1-1.83 3.88l1.94-.52c0-.78.12-1.5.12-2.21a6.7 6.7 0 0 0-.23-1.15m0 5.48c-2.11-.14-2.62.91-1.74 3.55 2.03-.22 2.18-.54 1.74-3.55m-1.89 16.17v3.29c2.16.1 2.47-.53 1.71-3.46Zm1.8-10.91c-2.1.3-2.38 1-1.66 3.61 2.08-.16 2.22-.45 1.69-3.61Zm-1.91 16.2a12.3 12.3 0 0 0 0 2.36 1.55 1.55 0 0 0 .92 1c.69.2 1.18-.14 1.13-1s0-1.53 0-2.37Zm15.73.71c-.37 3.16-.28 3.28 2 2.92.54-2.91.39-3.14-1.97-2.92Zm0-14.7c-.48 3-.29 3.33 2 3.26.51-2.84.47-2.93-1.92-3.26Zm0 4.94c-.39 3.1-.3 3.24 2 3.09.56-2.8.37-3.1-1.96-3.09Zm0 4.68v3.2l2.18.16v-1.72c0-.51-.05-.81-.07-1.29Zm2-15.84c.43-3 .33-3.16-2-3.47-.48 2.82-.37 3.03 2.04 3.47Zm0 4.81c.53-2.92.31-3.29-1.93-3.36-.51 2.79-.42 2.95 1.94 3.36Zm-20.65-1.56c1.9-.44 2.08-.94 1.4-3.52-1.73.29-1.93.76-1.39 3.52Zm0 5c1.79.05 2.14-.81 1.4-3.31-1.56-.2-1.68.29-1.41 3.27Zm-.11 2v3.13c2 0 2.16-.45 1.56-3.33Zm1.64 13.39v-3.33l-1.54.22v3.18Zm0-29.12c-1.77.36-2.1 1.28-1.32 3.46 1.71-.28 1.8-.5 1.3-3.45Zm-1.41 24c1.72.06 1.83-.2 1.41-3.18-1.78-.18-2.05.43-1.43 3.17Zm22.53-3.07c3.48-.84 3.54-.89 3-2.86-.98 1.05-3.37.24-3.02 2.85Zm0 9.27c3.51 0 3.53-.05 3-2l-3 .4Zm3.16-5.23c-3.26.3-3.36.37-3 2.14.34 0 .69 0 1-.1.65-.11 1.31-.24 2-.38a7 7 0 0 0 .1-.8 7 7 0 0 0-.11-.87Zm0-16.76c-3.29 1.6-3.48 1.82-2.93 3.56.97-1.24 3.43-.97 2.94-3.57Zm-3.12 9.62c3.29-1.15 3.62-1.27 3-2.82-2.72.69-3.2 1.11-2.99 2.81Zm0 6.15c3.25-.41 3.52-.63 2.91-2.32-3.1.6-3.1.6-2.89 2.31Zm3-12.3c-2.75.88-3.3 1.43-3 3 2.89-.91 3.37-1.39 3.04-3.01Z" fill="#43a2dd"/>
  <path d="M160.66 315.61v53.16a6 6 0 0 0 0 1.6c.12.41.53.73.81 1.09.23-.34.58-.65.65-1a10 10 0 0 0 0-1.84v-53c4.76.87 9.27 1.67 13.78 2.5 17.13 3.16 34.25 6.38 51.39 9.45 2.16.38 2.66 1.19 2.65 3.28-.08 13.12 0 26.24 0 39.36a7.4 7.4 0 0 0 .23 1.29h5.47v4.35H117.62v-4.19l4.4-.24v-47.31Zm26.46 42.78-14.16-.7v13.66h14.16Zm19.11 1-12.23-.68v12.63h12.28Zm-52.78-1.85c-3.42.2-6.55.34-9.67.62a1.8 1.8 0 0 0-1.23 1.21c-.09 4-.05 7.94-.05 12h10.95Zm-25.82 1.61v12.38h8.35c.44 0 1.23-.59 1.23-.92.09-3.94.06-7.89.06-12Zm95.31 12.27v-11.14l-10.55-.51v11.66Zm-50.12-23.36v7.08a1.46 1.46 0 0 0 1 1c1.79.19 3.61.22 5.35.3v-7.94Zm8.26.61v8H187v-7.45Zm18.4 9v-7.41l-5.44-.47v7.59Zm-50.94-1.38a26 26 0 0 0 3.63-.23c.52-.1 1.29-.72 1.32-1.14.13-2.27.06-4.55.06-7.16l-5 .6Zm52.37-5.86v7.11c5 1.4 5.75.88 5.55-4.05 0-.82-.13-1.65-.23-2.71Zm-53.64-2c-1.35.13-2.57.17-3.75.4a1.47 1.47 0 0 0-1 1c-.08 2.25 0 4.5 0 6.94l4.76-.37Zm69.74 10c1-6.34.71-6.77-4.26-7.11-.07 0-.14 0-.33.11v7Zm-79.89-1.35v-7.53a14 14 0 0 0-2.84.19c-.59.17-1.45.76-1.48 1.22-.17 2-.07 4.06-.07 6.34ZM173 327c-.78 5.64.17 6.64 5.39 5.88.5-6.02 1.11-5.4-5.39-5.88m-.2 10c0 1.78-.08 3.15 0 4.5 0 .46.54 1.18.93 1.25 1.49.28 3 .34 4.71.5v-5.58Zm50.1 21.89v-6.69l-4.38-.29c-.52 8.25-.76 6.91 4.38 7.02Zm-91.24-1.36v-7.43c-1.55.33-3.6-.85-4.08 1.33-.42 1.94-.09 4-.09 6.1Zm50.21-19.46c-.48 6.39-.89 5.71 5 5.79v-5.18Zm0-10v5.62l5.07.61v-5.37Zm16.78 7.72c1-5 .61-5.48-4.5-5.6-.99 4.97-.6 5.47 4.49 5.6Zm0 9.31c.84-5-.14-6.08-4.63-5.14-.58 5.14-.23 5.54 4.64 5.14Zm-52.05-17.17c-4.46.07-5.08 1-3.73 5.69 4.13.16 4.37-.27 3.73-5.69m0 15.4V338c-4.47 0-5.11 1-3.71 5.85Zm55.06 2.33 4.51.46V341l-4.51-.48Zm-52.37-8.3V343l4.09-.52v-5.69Zm56.69-.44c.79-5.63.69-5.31-4.3-5.45v4.87Zm-52.66-10.49-4.23.83v4.28a8 8 0 0 0 .17 1.08c4.99-.27 4.48.14 4.08-6.19ZM137 329.65c-4 0-4.86 1.61-3.18 5.63 3.88-.47 4.18-.93 3.18-5.63m75.48 12.4c-1 5-.73 5.3 4 4.88.87-4.65.36-5.27-4.01-4.88Zm-79.08 3c1.44-.32 3.41-.33 3.57-.87.45-1.54.16-3.3.16-5.11l-3.73.62Zm89.5-6.05c.74-4.77.18-5.45-3.82-4.69-.96 4.07.1 5.37 3.82 4.69m-10.55-6v4.8l4 .55c.77-5.04.65-5.19-4-5.35m10.46 14.69c.93-4.52 0-5.66-3.89-4.56v4.29c1.18.14 2.22.28 3.27.38a2.1 2.1 0 0 0 .62-.13Zm-95-11.58c3.84.06 4.36-.83 3.13-5.33-3.82.08-4.17.67-3.16 5.31Zm-.14 4.43v5.17l3.44-.51V340Z" fill="#2c84c6"/>
  <path d="M299.79 369.48h7.41v6.29h-108v-6.08l5.81-.44v-4q0-47.59-.05-95.19a5.48 5.48 0 0 1 2.61-5.17c7-4.89 13.92-10 20.87-15 .88-.63 1.8-1.18 3.2-2.1v117.89a26 26 0 0 0 .55 3.82l1.35-.22V247.6c1.29.42 2.12.63 2.9 1 13.32 5.63 26.61 11.33 40 16.87 2.27.94 3.22 2.05 3.14 4.62-.21 6.56.09 13.14-.14 19.7-.1 2.75.89 3.94 3.37 4.77 4.54 1.51 8.9 3.55 13.46 5 2.92.91 3.53 2.47 3.51 5.32-.13 20.48-.07 41-.07 61.45-.07.8.01 1.67.08 3.15m-34-.13 1.84-.08v-80.4l6.67 2.13.56-1.09a15 15 0 0 0-2.76-1.65c-7.58-2.56-15.19-5-22.79-7.54-2.82-.92-5.64-1.81-8.49-2.72-1.45 7-1.2 7.4 5 9.24 2 .61 4.08 1.12 6 1.88 4.38 1.67 8.69 2.59 13-.13.13-.08.4.07.83.17.17 26.7-.07 53.45.16 80.19Zm-25-106.17c-1.23 7.24-1.18 7.35 4.76 9.46q12.58 4.46 25.17 8.89c1.12.4 2.26.73 3.43 1.1 1.27-6.08 1.12-6.36-4.15-8.37-2-.75-3.93-1.53-5.91-2.28Zm-32.64 19.47 15.68-9.42c4.67-2.81 5.14-4.06 3.58-9.93l-15.93 10.26c-4.48 2.89-4.48 2.9-3.33 9.09m-.09 78.05a2.3 2.3 0 0 0 .77.24c4.3-.3 8.62-.56 12.92-.94 7.15-.63 6.29.81 6.18-7a4.7 4.7 0 0 0-.47-1.2c-4.88.6-9.81 1.17-14.73 1.83-5.45.73-5.45.76-5 6.31a4.3 4.3 0 0 0 .33.76M228 307.31l-15.87 6.09c-5.05 1.93-5.34 2.52-3.85 8.42 6.16-2.1 12.31-4.16 18.42-6.34a2.35 2.35 0 0 0 1.24-1.67c.14-1.94.06-3.91.06-6.5m-.51 29.69c-6.16 1.32-12.33 2.6-18.48 4a2.16 2.16 0 0 0-1.26 1.57 50 50 0 0 0-.06 5c.78.18 1 .3 1.2.26 4.5-.72 9-1.42 13.5-2.2 6.15-1.06 6.15-1.09 5.54-7.38a7.4 7.4 0 0 0-.44-1.25m.47-14.88c-5.7 1.69-10.69 3.17-15.68 4.67-5.22 1.58-5.6 2.34-3.92 8.09 6.09-1.55 12.21-3.06 18.3-4.7a2.24 2.24 0 0 0 1.24-1.62c.16-1.96.1-3.93.1-6.45Zm-.32-44.18c-5.55 3.09-10.77 6-16 8.89-4.61 2.57-4.73 2.85-3.47 8.84 5-2.55 9.91-5.07 14.82-7.56 5.67-2.86 5.68-2.85 4.65-10.18Zm-.08 14.83-16.38 7.65c-3.92 1.83-4.58 3.76-2.71 8.22 4.69-2 9.37-4 14.07-6 5.89-2.47 5.9-2.46 5.34-9-.01-.05-.07-.15-.32-.88Zm12.79 66.66 7.51.46c.67-7.91 1.73-8.36-7.29-7.68-.07.71-.2 1.46-.21 2.2-.03 1.52-.01 3.05-.01 5.01Zm7.4-43.13c1.14-8.12 1.21-7.43-6.94-8.41-1.57 6.84-.5 8.11 6.94 8.4Zm0 28.75c1-7.48 1.49-7.78-7-7.61-.97 7.86-1.22 7.84 7.03 7.56Zm-7-52.27c-1.22 7.84.41 9.68 7.38 8.75v-6.83Zm7.09 38.22c1.17-7.7-.85-9.77-7.35-7.92v6.62a20 20 0 0 0 2.3.67c1.62.2 3.21.36 5.05.63m29.71-22.35c.9-7.05.25-8-5.16-8.09-.89 6.87-.83 6.98 5.16 8.04Zm-5.15 3.07c-.82 7.22-.53 7.65 5.08 8 1.21-6.57.68-7.42-5.08-8.05Zm-.29 52.6h5.45v-7h-5.3c-.05 1.26-.12 2.34-.15 3.43s0 2.13 0 3.52Zm5.36-33.3c.77-6.72 1.33-7.94-5.14-7.64-.75 6.81-.75 6.81 5.14 7.62Zm.17 22.09c.66-7.19.4-7.53-5.12-7.06-1.34 6.77-.81 7.53 5.12 7.01Zm-5.21-18.68c-1 7.29-.57 7.9 5 7.42 1.32-6.7 1.03-7.14-5-7.47Zm9.81-9c-1 6.42-.68 7.77 4.78 6.94.54-6.64.35-6.92-4.78-6.97Zm4.64 17.78c.92-6.57.47-7.22-4.7-6.82-1.05 6.61-.69 7.17 4.7 6.79Zm-.11-31.74c.94-6.5 1-7.48-4.59-7.64-1.04 6.24-.84 6.61 4.59 7.61Zm-4.45 3.13c-1.42 6.11-.47 7.57 4.65 7.14.64-6.6.47-6.87-4.65-7.17Zm4.73 32.8-4.71-.5c-1.18 7.13-.56 8 4.71 6.79Zm-5 10.47v6.81h5v-6.48a20 20 0 0 0-2.08-.31c-.92-.08-1.79-.05-2.97-.05Zm13.66-23.46c1.31-5.91.82-6.72-4.11-6.82-1.31 5.92-.82 6.72 4.09 6.79Zm-4.31 20.19 4.51.54v-6.6l-4.51-.61Zm4.39-40.43c1-6.35.84-6.66-4.25-7.41-1.07 6.1-.91 6.38 4.25 7.41m-.07 30.54c1.29-6.07.66-7-4.17-6.7-1.14 5.99-.88 6.44 4.17 6.7m.1-20.35c1-6.19.38-7.14-4.34-7-.93 6.04-.82 6.23 4.34 7m-4.27 34.29c-1.1 6.51-.63 7.18 4.35 6.21v-6.21Zm-29.39-24.78-3.82.8V342l3.82-.81Zm0 23.1-3.87.28v7.23l3.87-.21Zm-3.75-49.16c4.4-.82 4.76-1.7 3.51-7.89-4.27.63-4.59 1.32-3.47 7.89Zm-.08 11.26c4.32-.41 5.11-2.3 3.4-7.77-4.18.78-4.18.78-3.36 7.77Zm0 26.87v7.12c4.31-.16 5.11-2.1 3.34-7.52ZM262 322.7c-4.35.61-4.83 1.73-3.52 7.7 4.37-.34 4.61-.85 3.52-7.7m-10.47 31.23 3.6-.55v-6.72c-4.47-.03-4.87.82-3.6 7.27m-.1-32.95c4.16-.66 4.44-1.32 3.32-7.32-4.09.34-4.38.96-3.32 7.34Zm3.45 14.64c-4.25.23-4.57.9-3.39 7.33l3.64-.54v-4.88c-.03-.64-.13-1.28-.25-1.91m-3.46-25.57c4.12-.74 4.58-1.88 3.23-7.53-4.11.81-4.26 1.15-3.23 7.53m.1 21.7c3.94-.06 4.6-1.6 3.08-7.17-4 .48-4.45 1.5-3.08 7.17m3.38 32.76v-7.14l-3.63.59v6.55Z" fill="#2c84c6"/>
  <path d="M357.84 373.27h5.9v3h-85.93v-2.84h7.49v-16l15.07-1.23c0 .65.08 1.2.09 1.74v13.64a4 4 0 0 0 0 1.09c.06.24.33.42.51.64.2-.2.52-.37.56-.59a6.6 6.6 0 0 0 .05-1.41v-32.29c0-1.55.58-1.91 2-1.67l.15 2 6.28-.93c0-3.4.09-6.73 0-10.06-.06-1.51.39-2.15 1.89-2.31s3-.53 4.58-.83v6.24c-1.41.25-2.79.54-4.17.72-.87.12-1.33.4-1.29 1.37.05 1.5 0 3 0 4.73l6.57-1c0-1.58 0-3.09 2.4-2.43v36.52a4.7 4.7 0 0 0 0 1.24c.08.27.4.64.62.64s.56-.33.66-.6a3.2 3.2 0 0 0 0-1.08v-17.09l20.59-1.66v20.37h1.64v-20.34l4.59.63c2.58.36 5.16.79 7.76 1 1.46.15 2 .63 2 2.21-.11 4.91 0 9.82 0 14.74Zm-40.31-.15v-9.26h-2.73c-.87 0-1.4.35-1.35 1.38.07 1.56 0 3.13 0 4.69 0 3.61 0 3.61 3.63 3.34a2 2 0 0 0 .45-.15m-5-8.9h-3.94v9.08a20 20 0 0 0 2.93-.05 1.42 1.42 0 0 0 1-1c.02-2.63-.01-5.25-.01-8.03Zm-5.11 9v-9l-3.64.23v8.78Zm6.15-10.65c1.17 0 2.16.07 3.14 0 .33 0 .88-.48.89-.75.09-1.7 0-3.4 0-5.27l-4.07.32Zm-5-5.36V363l3.84-.27v-5.82ZM307.4 363v-5.74l-3.6.32v5.64Zm5.6-15.41c3 0 3 0 2.94-2.72v-1.88c-.05-.88-.3-1.88-1.33-1.7a2.32 2.32 0 0 0-1.52 1.57 32 32 0 0 0-.09 4.73m-1.11.24a36 36 0 0 0-.05-4.33c-.08-.62-.75-1.16-1.15-1.74-.55.53-1.48 1-1.57 1.58a32.6 32.6 0 0 0-.08 4.77Zm23.6 17.82v4.18c0 .92.56 1 1.24.91s1.73.48 1.79-.82 0-2.87 0-4.44Zm.11-8.12v5a10.5 10.5 0 0 0 2 0c.36-.07.9-.45.92-.72.09-1.46 0-2.94 0-4.52Zm-27.6-9.32a37 37 0 0 0-.06-4.39c-.07-.56-.76-1-1.17-1.56-.49.47-1.35.9-1.41 1.42a42 42 0 0 0-.07 4.89Zm21.88 22.46h2.73v-4.81h-2.73Zm2.84-12.93-2.8.17v4.82c2.72.4 2.81.32 2.8-2.15Zm-8.22.44v5l2.56-.2v-4.78Zm0 7.88v4.73h2.59v-4.73Zm-28.56 1v4.4l1.94-.1V367Zm0-6.92v4.78c.89-.51 1.91-.77 2-1.23A17 17 0 0 0 298 360Zm-2.23 6.64c-.88.47-1.89.7-2 1.14a16 16 0 0 0-.08 3.46h2.07Zm-4.07-6-.39-.47c-.54.36-1.46.65-1.56 1.1a17.6 17.6 0 0 0-.07 3.51l2-.13Zm4.06 3.83v-4.26l-2 .15v4.22Zm-4.13 6.81v-4.12l-1.95.1a24 24 0 0 1 0 2.55c-.26 1.54.48 1.85 1.89 1.41Zm-89.47 1.82c1-.79 1-.79 1-6.1v-18.97c0-2.09.06-4.28.07-6.43s0-4.16 0-6.4a11 11 0 0 1 1.17.31c4.15 1.58 8.29 3.19 12.45 4.73a1.61 1.61 0 0 1 1.26 1.81c-.09 2.18 0 4.37 0 6.93l4.09-2.86v26.54h.49v-26.67c1.93.8 3.49 1.42 5 2.09 1.77.76 4.19 1.11 5.1 2.47s.33 3.71.34 5.63v16.67h4.3v3h-80.29v-2.82l3.4-.15v-46.6a2.58 2.58 0 0 1 1.22-2.44c3.38-2.37 6.7-4.82 10.05-7.23.32-.24.67-.43 1.25-.79v55.66a5 5 0 0 0 .49 1.42 4.8 4.8 0 0 0 .48-1.44v-55.74c1.79.74 3.42 1.39 5 2.07 5 2.12 10 4.28 15 6.35a1.91 1.91 0 0 1 1.39 2.08c-.07 3.7 0 7.4 0 11.46l6.72-2.69Zm-8.95-13.49-16.08-2c0 .91.05 1.54 0 2.14-.14 1.26.31 1.73 1.64 1.76 2.07.06 4.14.38 6.21.57l8.08.78c.05-.43.11-.73.12-1 .04-.73.03-1.4.03-2.25m-.17-27.4c.42-3.1.41-3.09-2.18-4.07l-12.43-4.69c-.36-.14-.75-.21-1.23-.34a11 11 0 0 1-.08 1.38c-.31 1.64.38 2.46 2 2.85s2.85 1 4.28 1.49Zm-15.8 18.5v3.69l15.87 2.36a8 8 0 0 0 .1-1c-.08-2.8.49-2.12-2.38-2.75-2.69-.58-5.43-.91-8.15-1.37-1.78-.27-3.55-.6-5.44-.93m15.79-.09c.64-2.88.49-3.15-2-3.73l-7.32-1.66-6.58-1.44c0 1 .06 1.76 0 2.53s.34 1.19 1.12 1.34c4.89.97 9.81 1.96 14.81 2.96Zm0 18.34c.56-3.24.55-3.22-2.45-3.41-3.44-.23-6.88-.46-10.31-.76s-3.34-.33-3.08 3c0 .09.09.17.23.43Zm0-30.6c.44-3.12.44-3.12-2.17-4l-12.17-4c-.46-.14-.94-.22-1.57-.37a24 24 0 0 0 0 2.72 1.38 1.38 0 0 0 .71 1c5.05 1.59 10.08 3.09 15.23 4.65Zm-15.82-1.5v3.65l15.95 4c0-.6 0-.91.06-1.21.31-1.6-.38-2.26-2-2.6-2.75-.59-5.43-1.47-8.15-2.22Zm-15.07 32.07c2-.13 4-.35 6-.39 3.54-.08 3.59-.1 3.1-3.62 0-.08-.11-.15-.23-.31-2.22.27-4.49.53-6.75.84-2.76.37-2.76.39-2.39 3.17.01.04.07.08.27.31m8.92-45.76c-.47.27-.92.49-1.34.76l-6.17 4c-2.08 1.36-2.12 1.48-1.52 4.25l7.21-4.35c2.34-1.43 2.46-1.72 1.82-4.66m-9.1 21.28c3-1.28 5.95-2.53 8.89-3.83a1 1 0 0 0 .42-.74v-3l-7.3 3.41c-2.48 1.12-2.47 1.13-2.01 4.16m0-6.12 7.36-3.75c2.26-1.15 2.53-1.81 1.72-4.55-2.39 1.33-4.74 2.64-7.11 3.94s-2.34 1.26-2.01 4.36Zm9.37 5.43-7.46 2.86c-2.32.88-2.49 1.24-1.75 3.93 2.86-1 5.72-1.93 8.56-2.94a1.27 1.27 0 0 0 .62-.92c.05-.83-.01-1.75-.01-2.93Zm-9.38 19.1c2.9-.49 5.73-.94 8.54-1.45a1.15 1.15 0 0 0 .75-.77 29 29 0 0 0 0-3l-7.18 1.51c-2.43.53-2.43.53-2.3 3a7 7 0 0 0 .19.71m-.08-6.12c3.09-.78 6-1.49 8.81-2.26a1.08 1.08 0 0 0 .58-.77c.07-.92 0-1.85 0-3-2.81.83-5.38 1.64-8 2.32-1.14.3-1.73.78-1.52 2a16 16 0 0 1 .13 1.7Zm69.94 6.12.47-.38c-.31-.46-.54-1.2-.95-1.31-2.25-.62-4.54-1.08-6.91-1.62-.13.89-.58 1.71.64 2Zm.07-3c.27-1.53.28-1.54-.92-1.88q-2.84-.81-5.69-1.58a3.6 3.6 0 0 0-.92 0c-.31 1.13 0 1.65 1.09 1.88 2.12.52 4.22 1.1 6.44 1.65Zm-.08-6 .44-.27c-.23-.49-.34-1.26-.71-1.42-2.32-1-4.7-1.83-7.05-2.72l-.45.42c.35.54.57 1.37 1.06 1.57 2.2.99 4.47 1.72 6.71 2.51Zm-7.34 15.8c-.43 1.33-.17 1.93 1.19 1.93 1.72 0 3.44.1 5.15.24 1.34.11 1.51-.48 1.09-1.62Zm0-6.69-.42.43c.33.49.58 1.33 1 1.41 2.27.46 4.58.74 6.88 1.08l.33-.36c-.25-.45-.43-1.22-.77-1.29-2.32-.51-4.67-.87-7.01-1.27Zm.07 3.35-.44.4c.27.48.48 1.34.82 1.38 2.33.35 4.69.53 7 .76l.32-.45c-.33-.42-.6-1.15-1-1.21-2.17-.34-4.44-.6-6.69-.88Zm7.29-9.39.39-.32c-.19-.45-.28-1.19-.6-1.31-2.36-.88-4.76-1.62-7.14-2.41l-.43.46c.31.51.52 1.33 1 1.49 2.22.79 4.51 1.41 6.79 2.09Zm-24.05-12.61c.32-3.42 0-3.87-2.53-3.9-.51 3.15-.28 3.52 2.54 3.9Zm-2.46 6.68c-.55 3.4-.27 3.8 2.49 3.72v-3.15Zm0 16.23c-.71 3.11-.23 3.76 2.39 3.17.55-3.2.36-3.54-2.36-3.17Zm2.4-17.66c.45-3.27.1-3.78-2.46-3.67-.46 3.18-.36 3.33 2.49 3.67Zm0 15.62c.59-3.14.23-3.62-2.39-3.26-.6 3.18-.26 3.6 2.38 3.26Zm0-5.2c.52-3.21.27-3.56-2.4-3.47-.61 3.2-.41 3.5 2.4 3.47m2.15-18c-.39 3.2-.23 3.45 2.23 3.61.56-2.91.38-3.22-2.23-3.62Zm2.26 13.8c.39-3.28.18-3.59-2.29-3.52v3.1Zm-2.19 1.49c-.67 3-.2 3.72 2.25 3.23.29-3.06.29-3.06-2.25-3.24Zm2.17-6.65c.5-3 .28-3.31-2.28-3.51v3.09c.54.15 1 .31 1.54.42a3.7 3.7 0 0 0 .7-.01Zm-2.29 15h2.31c.41-3.15.31-3.29-2.31-3.14Zm0 1.91v3.17H210c.54-3.21.44-3.36-2.21-3.21ZM196.63 360c2.1-.06 2.31-.51 1.72-3.46-2.11.03-2.25.31-1.72 3.46m1.78-19.66c-2.12.47-2.38 1-1.83 3.88l1.94-.52c0-.77.12-1.49.12-2.21a6 6 0 0 0-.23-1.14Zm0 5.48c-2.1-.14-2.62.91-1.74 3.55 2.04-.21 2.2-.53 1.78-3.54ZM196.56 362v3.29c2.17.1 2.47-.52 1.71-3.46Zm1.81-10.91c-2.1.31-2.39 1-1.67 3.62 2.06-.17 2.2-.46 1.67-3.62m-1.92 16.21a13 13 0 0 0 0 2.35 1.59 1.59 0 0 0 .92 1c.7.19 1.18-.15 1.14-1s0-1.53 0-2.36Zm15.74.7c-.37 3.16-.29 3.28 2 2.92.51-2.92.35-3.14-2-2.92m0-14.7c-.48 3-.28 3.33 2 3.27.47-2.88.44-2.94-1.96-3.27Zm0 4.94c-.39 3.1-.3 3.24 2 3.09.52-2.8.34-3.1-1.99-3.09Zm0 4.68v3.2l2.18.16v-1.72c0-.51 0-.8-.07-1.29Zm2-15.84c.43-3 .33-3.16-1.95-3.46-.57 2.81-.46 3.02 1.96 3.46Zm0 4.81c.52-2.92.3-3.29-1.94-3.36-.53 2.79-.44 2.95 1.92 3.36Zm-20.66-1.56c1.9-.44 2.09-.94 1.4-3.51-1.75.28-1.93.76-1.42 3.51Zm0 5c1.8.06 2.15-.81 1.4-3.31-1.58-.2-1.71.3-1.44 3.27Zm-.1 2v3.13c2 0 2.15-.45 1.56-3.33Zm1.57 13.4v-3.32l-1.53.21v3.19Zm0-29.12c-1.76.36-2.09 1.29-1.32 3.46 1.75-.28 1.84-.51 1.32-3.46m-1.4 24c1.71.06 1.83-.2 1.41-3.17-1.76-.2-2.01.41-1.4 3.15Zm22.53-3.07c3.47-.84 3.53-.89 3-2.86-.95 1.04-3.34.23-2.99 2.84Zm0 9.27c3.51 0 3.54-.05 3-2l-3 .4Zm3.17-5.23c-3.26.3-3.36.37-3.06 2.14.34 0 .7 0 1-.09.66-.11 1.31-.25 2-.39a5 5 0 0 0 .11-.8 7 7 0 0 0-.04-.88Zm0-16.76c-3.29 1.6-3.48 1.82-2.94 3.56 1-1.25 3.45-.98 2.97-3.58Zm-3.12 9.62c3.28-1.15 3.61-1.27 3-2.82-2.71.68-3.18 1.1-2.97 2.8Zm0 6.15c3.25-.41 3.51-.63 2.9-2.32-3.08.59-3.08.59-2.86 2.3Zm3-12.3c-2.74.88-3.3 1.43-3 3 2.9-.92 3.38-1.4 3.05-3.02Z" fill="#2c84c6"/>
  <path d="M248.78 316v53.15a6 6 0 0 0 0 1.6c.12.41.53.73.81 1.09.23-.34.58-.64.65-1a10 10 0 0 0 0-1.83V316c4.76.86 9.27 1.66 13.77 2.49 17.13 3.16 34.25 6.38 51.4 9.45 2.16.38 2.65 1.19 2.64 3.28-.07 13.12 0 26.24.06 39.36a8 8 0 0 0 .22 1.29h5.48v4.35H205.74V372l4.4-.24v-47.28Zm26.46 42.77-14.16-.7v13.66h14.16Zm19.11 1-12.29-.68v12.62h12.29Zm-52.78-1.85c-3.43.2-6.56.34-9.67.62a1.78 1.78 0 0 0-1.23 1.21c-.09 4 0 7.95 0 12h10.95Zm-25.82 1.61v12.38h8.34c.44 0 1.23-.59 1.24-.91.09-3.95.06-7.9.06-12Zm95.31 12.27v-11.15l-10.56-.51v11.66Zm-50.12-23.36c0 2.53-.05 4.81 0 7.08a1.42 1.42 0 0 0 1 1c1.79.19 3.6.22 5.35.3v-7.95Zm8.26.62v8h5.89v-7.44Zm18.4 9v-7.42l-5.44-.47v7.59Zm-51-1.39a26 26 0 0 0 3.64-.23c.51-.1 1.29-.72 1.32-1.14.13-2.27.06-4.55.06-7.15l-5 .59Zm52.4-5.85v7.11c5 1.4 5.74.88 5.55-4.05 0-.82-.14-1.64-.23-2.71Zm-53.64-2c-1.36.13-2.57.17-3.75.4a1.47 1.47 0 0 0-1 1c-.09 2.25 0 4.5 0 6.94l4.76-.37Zm69.73 10c1-6.34.72-6.77-4.26-7.11a1.6 1.6 0 0 0-.33.11v7Zm-79.88-1.35V350a14 14 0 0 0-2.85.19c-.58.17-1.44.76-1.48 1.22-.16 2-.07 4.06-.07 6.34Zm35.9-30.15c-.77 5.64.18 6.64 5.4 5.88.49-5.97 1.11-5.35-5.37-5.86Zm-.22 10.07c0 1.78-.08 3.15 0 4.5a1.67 1.67 0 0 0 .93 1.25c1.48.28 3 .34 4.7.5v-5.58ZM311 359.31v-6.73l-4.37-.3c-.49 8.25-.75 6.91 4.37 7.03m-91.24-1.37v-7.43c-1.54.33-3.59-.85-4.07 1.33-.42 1.94-.09 4-.09 6.1ZM270 338.48c-.48 6.39-.9 5.71 5.05 5.79v-5.18Zm0-10v5.63l5.07.61v-5.42Zm16.78 7.72c1-5 .61-5.48-4.51-5.6-.99 4.93-.6 5.4 4.49 5.56Zm0 9.31c.84-5-.14-6.08-4.63-5.14-.59 5.11-.24 5.5 4.63 5.1Zm-52.06-17.16c-4.46.06-5.08 1-3.73 5.68 4.08.12 4.37-.31 3.73-5.72Zm0 15.39v-5.36c-4.47 0-5.11 1-3.71 5.84ZM289.8 346l4.51.45v-5.1l-4.51-.48Zm-52.38-8.31v5.67l4.1-.52v-5.69Zm56.69-.44c.79-5.63.7-5.31-4.29-5.45v4.87Zm-52.65-10.45-4.23.83v4.28a6.4 6.4 0 0 0 .17 1.08c4.97-.27 4.46.14 4.06-6.19m-16.35 3.2c-4 .05-4.86 1.61-3.19 5.63 3.9-.45 4.16-.91 3.19-5.63m75.48 12.4c-1 5-.73 5.3 4 4.88.87-4.63.41-5.28-4-4.86Zm-79.09 3c1.45-.32 3.42-.33 3.58-.87.45-1.54.16-3.29.16-5.11l-3.74.62Zm89.5-6.05c.75-4.77.19-5.45-3.81-4.69-.95 4.09.11 5.39 3.81 4.69m-10.54-6v4.8l4 .56c.78-5.03.67-5.18-3.99-5.36ZM310.93 348c.92-4.52 0-5.66-3.9-4.56v4.29c1.19.14 2.23.28 3.28.39a2.2 2.2 0 0 0 .62-.12m-95-11.58c3.84.06 4.36-.83 3.13-5.33-3.82.14-4.17.73-3.16 5.37Zm-.14 4.43v5.17l3.43-.51v-5.21Z" fill="#4ba4db"/>
  <path d="M388.79 369.66h7.41V376h-108v-6.08l5.81-.44v-99.19a5.48 5.48 0 0 1 2.61-5.17c7-4.89 13.92-10 20.87-15 .88-.63 1.8-1.18 3.2-2.09v117.89a26 26 0 0 0 .55 3.82l1.35-.22V247.78c1.29.43 2.12.63 2.9 1 13.32 5.63 26.61 11.33 40 16.87 2.27.94 3.22 2.05 3.14 4.62-.21 6.56.09 13.14-.14 19.7-.1 2.75.89 3.94 3.37 4.77 4.54 1.51 8.9 3.55 13.46 5 2.92.91 3.53 2.47 3.51 5.32-.13 20.48-.07 41-.07 61.46-.12.79-.04 1.67.03 3.14m-34-.13 1.84-.08v-80.4l6.67 2.14c.19-.37.37-.74.56-1.1a15 15 0 0 0-2.76-1.65c-7.58-2.56-15.19-5-22.79-7.54-2.82-.92-5.64-1.81-8.49-2.72-1.45 7-1.2 7.4 5 9.25 2 .6 4.08 1.11 6.05 1.87 4.38 1.67 8.69 2.59 13-.13.13-.08.4.07.83.17.12 26.66-.12 53.45.11 80.19Zm-25-106.17c-1.23 7.25-1.18 7.35 4.76 9.46q12.58 4.47 25.17 8.89c1.12.4 2.26.73 3.43 1.11 1.27-6.08 1.12-6.37-4.15-8.38-2-.75-3.93-1.53-5.91-2.28Zm-32.64 19.47 15.68-9.42c4.67-2.81 5.14-4.06 3.58-9.93l-15.93 10.26c-4.48 2.89-4.48 2.9-3.33 9.09m-.09 78.05a2.3 2.3 0 0 0 .77.24c4.3-.29 8.62-.56 12.92-.94 7.15-.63 6.29.81 6.18-7a4.7 4.7 0 0 0-.47-1.2c-4.88.6-9.81 1.17-14.73 1.83-5.45.73-5.45.77-5 6.31a4.3 4.3 0 0 0 .33.76M317 307.49l-15.87 6.09c-5.05 1.94-5.34 2.52-3.85 8.43 6.16-2.11 12.31-4.17 18.42-6.35a2.31 2.31 0 0 0 1.24-1.67c.14-1.94.06-3.91.06-6.5m-.49 29.68c-6.16 1.32-12.33 2.6-18.48 4a2.16 2.16 0 0 0-1.26 1.57 50 50 0 0 0-.06 5 6 6 0 0 0 1.2.26c4.5-.73 9-1.43 13.5-2.21 6.15-1.06 6.15-1.09 5.54-7.38a7.4 7.4 0 0 0-.46-1.24Zm.47-14.88c-5.7 1.69-10.69 3.17-15.68 4.67-5.22 1.58-5.6 2.34-3.92 8.09 6.09-1.54 12.21-3.06 18.3-4.7a2.22 2.22 0 0 0 1.24-1.62c.14-1.95.08-3.92.08-6.44Zm-.32-44.18c-5.55 3.09-10.77 6-16 8.89-4.61 2.57-4.73 2.86-3.47 8.84 5-2.55 9.91-5.07 14.82-7.55 5.65-2.86 5.66-2.85 4.63-10.18Zm-.08 14.83-16.38 7.65c-3.92 1.83-4.58 3.76-2.71 8.23 4.69-2 9.37-4 14.07-6 5.89-2.47 5.9-2.46 5.34-9-.03-.05-.09-.15-.34-.88Zm12.79 66.66 7.51.46c.67-7.91 1.73-8.36-7.29-7.68-.07.71-.2 1.46-.21 2.21-.05 1.52-.03 3.05-.03 5.01Zm7.4-43.13c1.14-8.12 1.21-7.43-6.94-8.41-1.59 6.85-.52 8.14 6.92 8.41Zm0 28.75c1-7.48 1.49-7.78-7-7.61-.99 7.87-1.24 7.85 7.01 7.61Zm-7-52.27c-1.22 7.84.41 9.68 7.38 8.75v-6.82Zm7.08 38.18c1.17-7.7-.85-9.77-7.35-7.92v6.62a20 20 0 0 0 2.3.67c1.61.25 3.2.41 5.04.63Zm29.71-22.35c.9-7 .25-8-5.16-8.09-.9 6.92-.84 7.03 5.15 8.09Zm-5.15 3.08c-.82 7.21-.53 7.64 5.08 8 1.2-6.52.67-7.38-5.09-8Zm-.29 52.59h5.45v-7h-5.3c-.05 1.26-.12 2.34-.15 3.43s-.01 2.19-.01 3.57Zm5.36-33.3c.77-6.72 1.33-7.94-5.14-7.63-.76 6.85-.76 6.85 5.13 7.63Zm.17 22.09c.66-7.19.4-7.53-5.12-7.05-1.35 6.81-.82 7.57 5.11 7.05Zm-5.21-18.67c-1 7.28-.57 7.89 5 7.41 1.31-6.65 1.02-7.09-5.01-7.41Zm9.81-9c-1 6.42-.68 7.77 4.78 6.94.53-6.6.34-6.87-4.79-6.93Zm4.64 17.78c.92-6.57.47-7.22-4.7-6.82-1.06 6.69-.7 7.21 4.69 6.83Zm-.11-31.74c.94-6.5 1-7.47-4.59-7.64-1.05 6.28-.85 6.65 4.58 7.65Zm-4.45 3.13c-1.42 6.11-.47 7.57 4.65 7.14.63-6.56.46-6.83-4.66-7.13Zm4.73 32.8-4.71-.5c-1.18 7.13-.56 8 4.71 6.79ZM371 358v6.82h5v-6.49a20 20 0 0 0-2.08-.31c-.87-.02-1.74-.02-2.92-.02m13.66-23.46c1.31-5.91.82-6.72-4.11-6.82-1.26 5.97-.77 6.78 4.14 6.84Zm-4.29 20.22 4.51.54v-6.6l-4.51-.61Zm4.39-40.43c1-6.35.84-6.66-4.25-7.41-1.04 6.08-.88 6.4 4.28 7.43Zm-.07 30.54c1.29-6.07.66-7.05-4.17-6.7-1.11 6.01-.85 6.46 4.2 6.72Zm.1-20.35c1-6.18.38-7.14-4.34-7-.9 6.06-.79 6.25 4.37 7.02Zm-4.27 34.29c-1.1 6.51-.63 7.18 4.35 6.21v-6.21Zm-29.39-24.78-3.82.8v7.34l3.82-.81Zm0 23.1-3.87.28v7.23l3.87-.21ZM347.45 308c4.4-.82 4.76-1.69 3.51-7.89-4.31.62-4.63 1.31-3.51 7.89m-.08 11.26c4.32-.41 5.11-2.3 3.4-7.77-4.22.77-4.22.77-3.4 7.76Zm0 26.87v7.12c4.31-.16 5.11-2.1 3.34-7.52Zm3.63-23.25c-4.35.61-4.83 1.73-3.52 7.7 4.37-.34 4.61-.85 3.52-7.7m-10.47 31.23 3.6-.55v-6.72c-4.47-.03-4.87.83-3.6 7.27m-.1-32.95c4.16-.66 4.44-1.32 3.32-7.32-4.09.33-4.38.96-3.32 7.32m3.45 14.64c-4.25.23-4.57.9-3.39 7.33l3.64-.54v-4.88c-.03-.64-.13-1.28-.25-1.91m-3.46-25.57c4.12-.74 4.58-1.88 3.23-7.53-4.11.81-4.26 1.15-3.23 7.53m.1 21.7c3.94-.06 4.6-1.6 3.08-7.17-4 .48-4.45 1.5-3.08 7.17m3.38 32.76v-7.14l-3.63.59v6.55Z" fill="#2c84c6"/>
  <path d="M446.84 373h5.9v3h-85.93v-2.84h7.49v-16l15.07-1.22c0 .65.08 1.19.09 1.73v13.64a4 4 0 0 0 0 1.09c.06.24.33.43.51.64.2-.2.52-.37.56-.59a6.6 6.6 0 0 0 .05-1.41v-32.29c0-1.55.58-1.91 2-1.67l.15 2 6.28-.94c0-3.4.09-6.73 0-10.06-.06-1.51.39-2.15 1.89-2.31s3-.52 4.58-.83v6.24c-1.41.25-2.79.54-4.17.72-.87.12-1.33.41-1.29 1.37.05 1.5 0 3 0 4.73l6.57-1c0-1.58 0-3.09 2.4-2.43v36.52a4.6 4.6 0 0 0 0 1.24c.08.27.4.64.62.65s.56-.34.66-.6a3.3 3.3 0 0 0 0-1.09V354.2l20.59-1.66v20.37h1.64v-20.34l4.59.63c2.58.36 5.16.79 7.76 1.05 1.46.14 2 .62 2 2.2-.11 4.91 0 9.83 0 14.74Zm-40.31-.15v-9.26h-2.73c-.87 0-1.4.34-1.35 1.38.07 1.55 0 3.12 0 4.68 0 3.61 0 3.61 3.63 3.35a3 3 0 0 0 .45-.16Zm-5-8.9h-3.94V373a19 19 0 0 0 2.93 0 1.43 1.43 0 0 0 1-1c.02-2.66-.01-5.31-.01-8.06Zm-5.11 9v-9l-3.64.24v8.77Zm6.15-10.65c1.17 0 2.16.07 3.14 0 .33 0 .88-.47.89-.75.09-1.69 0-3.4 0-5.27l-4.07.33Zm-5-5.35v5.76l3.84-.26v-5.85Zm-1.15 5.77V357l-3.6.32v5.64Zm5.58-15.41c3 0 3 0 2.94-2.72v-1.87c-.05-.89-.3-1.88-1.33-1.71a2.34 2.34 0 0 0-1.52 1.57 32 32 0 0 0-.09 4.73m-1.11.24a36 36 0 0 0-.05-4.33c-.08-.62-.75-1.16-1.15-1.73-.55.52-1.48 1-1.57 1.57a32.6 32.6 0 0 0-.08 4.77Zm23.6 17.82v4.18c0 .92.56 1 1.24.91s1.73.48 1.79-.82 0-2.87 0-4.44Zm.11-8.12v5.05a10.4 10.4 0 0 0 2 0c.36-.07.9-.45.92-.71.09-1.47 0-2.95 0-4.53Zm-27.6-9.32a37 37 0 0 0-.06-4.39c-.07-.55-.76-1-1.17-1.55-.49.47-1.35.89-1.41 1.41a42 42 0 0 0-.07 4.89Zm21.88 22.47h2.73v-4.82h-2.73Zm2.84-12.94-2.8.17v4.82c2.72.4 2.81.32 2.8-2.14Zm-8.22.44v5l2.56-.19v-4.81Zm0 7.88v4.73h2.59v-4.73Zm-28.56 1v4.39l1.94-.1v-4.29Zm0-6.93v4.78c.89-.51 1.91-.77 2-1.23a17 17 0 0 0 .09-3.66Zm-2.23 6.64c-.88.47-1.89.71-2 1.14a16 16 0 0 0-.08 3.46h2.07Zm-4.07-6-.39-.46c-.54.36-1.46.64-1.56 1.1a17.5 17.5 0 0 0-.07 3.5l2-.13Zm4.06 3.83V360l-2 .15v4.22Zm-4.13 6.81V367l-1.95.1a24 24 0 0 1 0 2.56c-.26 1.56.48 1.86 1.89 1.42Z" fill="#4ba4db"/>
  <path d="M106.9 298.52s-14.4 31.18-2.9 64.59c2.87 11.13 17 30.66 8.32 39.57s-14.73 32.8-17 58.42c-2.88 13.37-2.88 17.82-2.88 17.82h14.39s11.53-40.09 17.29-55.68c8.64-11.13 17.84-17.52 17-26.87s-3.55-88.08-1.91-97c-34.53-2.25-32.31-.85-32.31-.85" fill="#f7b1a4"/>
  <path d="M106.9 300.74s-34.56 26.73 5.75 71.26c17.28 20 28.84 27.14 26 33.82s-6.93 21.19-1.76 48.35c1 5.25-4 20.28-4 20.28h17.28s11.52-66.81 5.77-82.41-20.16-49-20.16-57.9-.85-12.57 3.54-31.13c-8.72-.01-32.42-2.27-32.42-2.27" fill="#f4a190"/>
  <path d="M151 471.93s-1.6 11.77 9.39 18.07c7.66 4.38 23.55 9.55 14.91 11.78s-17.27 5.49-31-5c-4.57 0-12.77 2.81-16-.49a5.4 5.4 0 0 1-1.32-4c0-8.91 6.66-21.15 6.66-21.15s3.5 2.86 5.49 2.36c1.43-.36 4.1-1.74 6.37-1a6.62 6.62 0 0 0 5.5-.57" fill="#050f11"/>
  <path d="M128.09 492.4h7.71a4.33 4.33 0 0 1 4.33 4.33v1.84a1.26 1.26 0 0 1-1.26 1.26h-12v-6.18a1.26 1.26 0 0 1 1.26-1.26Z"/>
  <path d="M106.89 478.38s2 8.74 13.46 15.53 23.3 15.7 11.78 15.7-45.4-1.81-45.4-10.86 5.76-20.37 5.76-20.37 4.49-.4 5.92 0c3.1.87 8.48 0 8.48 0" fill="#050f11"/>
  <path d="m87.102 498.977 7.694.484a5.59 5.59 0 0 1 5.228 5.93l-.115 1.836-13.274-.835.467-7.425z"/>
  <path d="M147.13 189.87s-3.84 15.38-1 19.53-.21 15.4-7.38 13.84-20.63 3.41-21.48-11.13 12.06-41.3 29.86-22.24" fill="#fcc7be"/>
  <path d="M102.91 302.14s-21 19.43-3.41 74.85c3.5 14.07-19.5 39.43-27.8 51.82s13.73 9.75 35.72 5.35 20.23 1.76 36.07 10.56 13.95 10.44 20.61-4.9 4.89-50.52-8.3-72.51-16.71-60.69-16.71-64.21c-33.43 0-36.18-.96-36.18-.96" fill="#0d3075"/>
  <path d="M110.13 301.8s-20.08 30.2-7.83 68.86S91.38 435 89.74 437.39c10.2-.79 30.61-12.56 49.45 4.71l15.81 8.63s16-45.05-7-89.21c-12.31-23.65-14-56-12.31-59.93s-25.56.21-25.56.21" fill="#a9f0fc" opacity=".16" style="mix-blend-mode:screen"/>
  <path d="M117.21 300s-3.92 44 3.93 70.64-5.5 59.73-8.64 62c7.85-.85 14.51.58 21.78 6.56 5.9 4.09 9.42 6 9.42 6s9.62-40.85-4.51-76.18-12.56-59.65-11.77-69.86c-10.21.07-10.21.84-10.21.84" fill="#0d3075"/>
  <path d="M123.71 215.57 119 228.65s-22-8.57-24.66 2-3.19 33 5.2 50.16.5 24.45.5 24.45 7.06 0 9.18-.86c3.08-1.24 8.66-.3 11.32.62 2.86 1 9.21 1 11.9-.13 3.49-1.54 9.15-.11 9.15-.11s-9.46-23.75-1.61-38.62c4.08-7.74 2.68-8.25 2.68-8.25s.5-13.24-3.69-20.56a18 18 0 0 0-9.34-8.13 1.74 1.74 0 0 1-1.11-2l2.56-13.74Z" fill="#fa7066"/>
  <rect x="128.22" y="207.74" width="12.54" height="21.27" rx="4.71" transform="rotate(-23.04 134.476 218.377)" fill="#033460"/>
  <path d="M136.66 232.22s-6.37-11.92-5.13-11.61 2.36 2.46 2.36 2.46-2.67-8.32-.82-5.34a36 36 0 0 1 2.67 5s-3.8-8.52-2.88-8.93 2.47 4.41 3.08 6.16c.31.72-2.36-6.47-1.74-7.5s2.67 6.78 3.18 7.3-1.85-7.4-.82-7.2 3.46 7 4.42 9.46c3 7.5.82 10.27.82 10.27s-4.42 2.6-5.14-.07" fill="#f4c3bd"/>
  <path d="M113.75 269.11s11.2 22.09 21.48 14.18 16.22-24.55 16-31c-.21-6.79-7.94-22.49-8.74-22.1l-5.25 2.94a.59.59 0 0 0-.28.76 46.1 46.1 0 0 1 4.3 18.19c.11 4.85-3.92 10.95-4.76 13.41-.32 1-3.47 4.57-3.87 3.65-1.24-2.83-3-11.21-4.11-16-1.75-7.5-12.13-5.76-12.13-5.76Z" fill="#fc8b88"/>
  <path d="M145.47 186.19s-13.78-8.77-30.94.27-15.82 12.95-19.32 24.73-3.78 14.46-9.27 21.29 3.28 14.24 1.81 17.37S72.17 261.13 72.64 266s-2.19 12.51 13.73 17.36 13.6.05 20.36-.85 9.66 10.14 17.21-2.15 6.31-35-1.64-45.91 8-24 12.12-29.39c5.19-3.65 7.16-2.56 9.31-6s7.57-7.59 1.74-12.87" fill="#183845"/>
  <path d="M122.14 189.1c-4.26 5-8.09 7.63-8.47 14.69-.39 7.35-1 13.9-7.37 18.59-.82.61.77 4.42 0 5 5.11-3.79 7-9.35 7.28-15.52.16-3.7 0-7.44 2-10.69 1.7-2.71 4.46-4.66 6.53-7.07.84-1-.81-4.06 0-5Z" fill="#183845"/>
  <path d="M118.6 185.52a.7.7 0 0 1 .21 0 6 6 0 0 0 .9-.05c.13 0 0 0-.8.31l-.22.11c-.4.19-.8.32-1.18.52s-.77.36-1.15.56c-.76.38-1.48.8-2.2 1.23a34.7 34.7 0 0 0-8.3 7.19 47 47 0 0 0-6 9.26c-.41.83-.81 1.67-1.19 2.53 0 0-.52 1-1.23 2.48a25 25 0 0 1-2.8 4.64 10 10 0 0 1-2.11 2l-.43.29a7.6 7.6 0 0 0 .88-.8 7.8 7.8 0 0 0 1.23-1.86c0 .07.18-.34.44-1a23 23 0 0 0 .81-2.7c.23-1.05.47-2.1.65-2.9s.34-1.35.34-1.35c.25-.81.55-1.6.86-2.39a33.1 33.1 0 0 1 6.25-10.12 25.5 25.5 0 0 1 9.83-6.71 21 21 0 0 1 2.56-.76 19 19 0 0 1 2.65-.48" fill="#324b51" opacity=".39"/>
  <path d="M97.68 210.49a1 1 0 0 1 .15-.15 5.5 5.5 0 0 0 .6-.67c.07-.1-.06 0-.33.8l-.08.23c-.67 1.61-1.37 3.19-2.07 4.75a74 74 0 0 0-3.66 9.5c-.47 1.59-.79 3.22-1.13 4.92s-.69 3.43-1.22 5.17a24 24 0 0 1-1 2.85 15.4 15.4 0 0 1-1.63 2.51 12.8 12.8 0 0 1-4.31 3.51 9 9 0 0 1-2.77.84c-.52.06-.66.09-.51.07a6.6 6.6 0 0 0 3-1.48c-.08 0 .29-.24.79-.77a11.3 11.3 0 0 0 1.61-2.22 15.3 15.3 0 0 0 1.43-3.76c.23-.74.41-1.5.58-2.27.35-1.63.62-3.31.94-5a37 37 0 0 1 1.3-5.23 36.7 36.7 0 0 1 5-9.47c1.08-1.46 2.17-2.81 3.31-4.13m49.16-20.24v-.19a3 3 0 0 0-.1-.89c0-.11 0 0 .36.79l.1.23a5.5 5.5 0 0 1 .26 1.34 6.4 6.4 0 0 1-.06 1.38 7 7 0 0 1-.31 1.36 10 10 0 0 1-.53 1.3 11.2 11.2 0 0 1-2 2.73 17.3 17.3 0 0 1-2.56 2.07c-1.78 1.22-3.63 2.16-5.26 3.22a39 39 0 0 0-4.64 3.62c-1.47 1.34-3 2.75-4.32 4.16a16 16 0 0 0-1.64 2.07 15 15 0 0 0-1.39 2.22 23.5 23.5 0 0 0-1.78 4.86 28 28 0 0 0-.66 3.3c0-.29.06-1.73.11-3.49a30 30 0 0 1 .41-4.12 18.5 18.5 0 0 1 .81-3c.15-.41.29-.75.4-1l.17-.37a18 18 0 0 1 1.46-2.23 43 43 0 0 1 4.35-4.66 30 30 0 0 1 5.13-3.92c1.88-1.11 3.79-1.92 5.52-2.84a20.4 20.4 0 0 0 2.47-1.52 10.4 10.4 0 0 0 2-2 8.4 8.4 0 0 0 1.2-2 6 6 0 0 0 .36-1.16 6.3 6.3 0 0 0 .14-1.26m-26.45 30.69a2 2 0 0 1 .09-.19 3.8 3.8 0 0 0 .41-.83 2.4 2.4 0 0 0 .07.87v.25l.13 1.29c.05.42.11.84.16 1.26.12.83.25 1.64.43 2.44a33 33 0 0 0 1.19 4.35c.3.84.62 1.65 1 2.47l1 2.57a19.2 19.2 0 0 1 1.27 5.36 10.7 10.7 0 0 1-.19 2.91c-.11.52-.13.65-.1.51a6.6 6.6 0 0 0-.61-3.34c0 .09-.14-.35-.48-1a23 23 0 0 0-1.44-2.38c-.59-.86-1.21-1.75-1.65-2.46s-.72-1.23-.72-1.23a17 17 0 0 1-1-2.47 16.6 16.6 0 0 1-.69-5.08 15 15 0 0 1 .29-2.71c.08-.45.21-.89.33-1.32a12 12 0 0 1 .51-1.27" fill="#324b51" opacity=".39"/>
  <path d="M128 259.89v-.18a.8.8 0 0 0 0-.49.44.44 0 0 0-.25-.23h.07a1 1 0 0 1 .62.58 1.3 1.3 0 0 1 .12.26 10 10 0 0 1 .2 1.36c0 .44.08.89.09 1.33s0 .9 0 1.34-.06.89-.1 1.34a29 29 0 0 1-.71 4c-.32 1.3-.7 2.57-1.11 3.82q-.47 1.37-1 2.7l-1.15 2.52c-.32.72-.71 1.53-1 2.37s-.67 1.69-1 2.47-.35 1.24-.47 1.69l-.2 1.08c-.08.52-.07.66-.07.51s-.07-1.73 0-3.53v-1.18c0-.79.15-1.87.33-2.95.31-2.17.83-4.31.83-4.31.24-.79.5-1.58.76-2.35.41-1.24.84-2.45 1.28-3.66s.85-2.41 1.27-3.62c.12-.4.26-.8.4-1.2s.24-.8.37-1.21.25-.81.36-1.22.29-.88.36-1.24" fill="#324b51" opacity=".14"/>
  <path d="M112 279.38h.06a.4.4 0 0 0 .2-.09s0 0 .06.21v.07a1 1 0 0 1 0 .34 3.6 3.6 0 0 1-.08.86 4.4 4.4 0 0 1-.42 1 4.7 4.7 0 0 1-.6.92 6 6 0 0 1-1.49 1.33 4.7 4.7 0 0 1-.82.42l-.64.08-.61.06c-.21 0-.44 0-.62.06a1.7 1.7 0 0 0-.66.2 2.5 2.5 0 0 0 .32-.67s0-.08.08-.25.15-.38.22-.61.17-.44.23-.61l.09-.29a6 6 0 0 1 .53-.69 6.7 6.7 0 0 1 1.4-1.22 4.6 4.6 0 0 1 .9-.49c.29-.13.58-.22.83-.31a6 6 0 0 0 .67-.2Z" fill="#324b51" opacity=".39"/>
  <path d="M394.09 459.74s2.94 8.82 2.29 15c-.33 2.61 13.05.33 13.05.33s-2.28-10.45.33-15.67l2.61-5.23Z" fill="#f88f73"/>
  <path d="M394.73 473.18s-6.41 4.41 2.95 11.7 16 12.19 19.26 7.83-2.69-17.47-8.29-23.2-13.92 3.67-13.92 3.67" fill="#183845"/>
  <path d="M396.45 469s-.72 4.11-.07 5.74 6.2 9.14 9.46 3.26 4.25-7.18 1.64-10.44-11.03 1.44-11.03 1.44" fill="#f88f73"/>
  <path d="M334.73 304.21S384 378.41 388 398.84s3 66.53 3 66.53a9.87 9.87 0 0 0 5.43 1.23c2.61-.29 5.47-5.07 8.81-4.9 6.2.33 12 .05 12.37-1 .75-2.25-12.18-37.1-3.37-55.84s-20.43-65.4-20.43-65.4l-17.61-40.11Z" fill="#122d35"/>
  <path fill="#f88f73" d="m360.47 211.01 4.24 6.53-3.26 1.96-2.94.98-2.94-4.9z"/>
  <path d="M358.51 234.19s8.35.83 17.3 13.38c1.48 2.07-20.71-30.48-18.77-29.57 2.45 1.17 7-3.07 7-3.07s15.09 19.94 21.65 31.75 14.34 20.88 6.1 24.07-10.28-1.48-16.65-5.55-14.73-17.77-15.14-18.71-1.49-12.3-1.49-12.3" fill="#fefefe"/>
  <rect x="350.35" y="199.91" width="11.42" height="17.95" rx="4.3" transform="rotate(-31.99 356.075 208.889)" fill="#033460"/>
  <path d="M349.37 460.4s2.94 8.81 2.29 15c-.33 2.61 13.06.33 13.06.33s-2.29-10.45.32-15.67l2.61-5.22Z" fill="#f88f73"/>
  <path d="M335.86 234.68s-16.68 3-18.74 6.56-21.18 33.92-15.74 46.66 21.92 39.92 25.86 45 5.81 6.56 5.81 6.56l5.06-15.18s-27-33.73-23.43-47c1.88-7.68 17.81-24.55 20.43-28.86s.75-13.74.75-13.74" fill="#fefefe"/>
  <path d="M329.49 305.52s-1.13 27.73 7.49 69.15 10.87 49.28 8.62 66.52 0 21 0 21 8.65.36 12.26 3.44 16.6-2.5 14.35-6.44-3.93-28.86-.75-35.23-7.68-39-6.18-50.78 1.5-36.92 1.5-36.92l-5.33-28.95ZM350 476.44s-5.15 5.78 4.22 13.06 20.41 9.77 23.65 5.41-8.35-16.41-13.95-22.14-13.92 3.67-13.92 3.67" fill="#183845"/>
  <path d="M351.54 472.2s.77 7.13 3.71 8.11 9.79-1 9.47-3.59-2-8.49-3.27-8.49-9.91 3.97-9.91 3.97" fill="#f88f73"/>
  <path d="M340.54 233.93s-27.73-2.68-16.49 36.36c7.15 24.82 5.44 35.23 5.44 35.23" fill="#fefefe"/>
  <path d="m340.73 226.44-.19 7.49s-19.3 10.68-16.49 36.36 5.44 35.23 5.44 35.23 6.37 6.56 25.11 3 29 .56 23.61-28.11-14.43-45.17-18.55-45.73-8.81-1.5-8.81-1.5l-2.85-7.87Z" fill="#fefefe"/>
  <path d="M328.36 205.26s2.06 21.55 12.93 21.55 15.18-5.81 14.06-23.05-26.61-3.18-26.99 1.5" fill="#f88f73"/>
  <path d="M329.14 212.32s-7.84-1.31-5.88-6.53-.65-7.18 2.94-8.16 2.28 0 5.22-2.29 9.14-3.92 9.47-2.61 3.26-3.92 6.2-2 6.53 2.61 6.53 4.57 4.89 3.27 3.26 5.88-.85 11.44-.85 11.44 1.18-1.32-4.7-7.2c-1.3-2-3.92-4.9-7.51-2s-5.22 5.55-8.16 6.2-4.71 4.84-5.29 4.55-1.23-1.85-1.23-1.85" fill="#183845"/>
</svg>
